<svg width="221" height="40" viewBox="0 0 221 40" fill="none" xmlns="http://www.w3.org/2000/svg">
    <path fill-rule="evenodd" clip-rule="evenodd" d="M38.3487 0.937332C39.6391 -0.302594 41.6732 -0.308232 42.9703 0.895827L43.0932 1.01546L43.5126 1.45736C47.7614 6.0489 49.3446 11.3997 48.9385 16.6254C48.5265 21.9248 46.0924 26.9222 42.6967 30.8713C39.3031 34.8179 34.7723 37.9259 29.8748 39.2749C24.9157 40.6406 19.4919 40.2052 14.7838 36.866C10.7906 34.0336 9.27028 29.4562 9.167 25.0094C6.92619 23.9052 4.56842 22.5328 2.09457 20.8638L1.4409 20.4178L1.30165 20.3169C-0.102828 19.2389 -0.42396 17.2437 0.59965 15.779C1.62357 14.3143 3.61731 13.917 5.12456 14.848L5.26955 14.9424L5.86506 15.3493C7.34702 16.3491 8.76109 17.2159 10.1057 17.9641C10.9731 14.9059 12.4104 11.9696 14.3038 9.5492C17.1405 5.92322 21.3936 3.02347 26.604 3.45611C31.2972 3.84608 34.7649 6.27842 36.5548 9.71115C38.2879 13.0351 38.3136 17.0336 36.7989 20.4723C35.2546 23.9779 32.1196 26.8985 27.6098 28.1019C24.3643 28.9679 20.5622 28.9084 16.2722 27.7487V27.7503C14.5645 27.2885 12.7748 26.6507 10.9044 25.8224C10.4848 25.6366 10.1196 25.9205 10.9044 26.4132C13.1131 27.9882 16.2245 29.3084 17.1249 29.7515C17.5504 30.4431 18.0781 31.0104 18.6829 31.4394C21.4662 33.4135 24.7222 33.7752 28.0825 32.8497C31.5044 31.9072 34.9341 29.6346 37.5943 26.541C40.2524 23.4497 41.9662 19.7458 42.2486 16.1119C42.5151 12.683 41.5302 9.16045 38.5633 5.95943L38.2701 5.65099L38.153 5.52403C36.9855 4.19612 37.059 2.17717 38.3487 0.937332ZM26.0453 10.1002C23.8926 9.92141 21.6207 11.0599 19.602 13.6403C18.0646 15.6055 16.9013 18.159 16.3082 20.7865C20.533 22.2375 23.6815 22.2474 25.8692 21.6638C28.4018 20.988 29.9204 19.458 30.6513 17.7989C31.4116 16.0726 31.3337 14.1916 30.5964 12.7776C29.9159 11.4725 28.5459 10.308 26.0453 10.1002Z" fill="#00DC33"></path>
</svg>